<?xml version="1.0" encoding="utf-8"?>
<!-- Generator: Adobe Illustrator 16.0.0, SVG Export Plug-In . SVG Version: 6.00 Build 0)  -->
<!DOCTYPE svg PUBLIC "-//W3C//DTD SVG 1.1//EN" "http://www.w3.org/Graphics/SVG/1.1/DTD/svg11.dtd">
<svg version="1.1" id="Layer_1" xmlns="http://www.w3.org/2000/svg" xmlns:xlink="http://www.w3.org/1999/xlink" x="0px" y="0px"
	  viewBox="0 0 280 70" enable-background="new 0 0 280 70" xml:space="preserve">
<g>
	<g>
		<path fill="#29559B" d="M198.496,5.049h7.388V40.36c0,3.112-2.955,3.578-3.966,3.578c-1.634,0-2.566-1.089-3.111-1.711
			l-20.377-25.9v27.066h-7.39V7.539c0-1.556,1.322-3.5,4.044-3.5c1.945,0,2.801,0.855,3.346,1.478l20.066,25.199V5.049z"/>
		<path fill="#29559B" d="M20.385,5.049c8.167,0,12.056,3.5,12.056,11.589c0,5.911-2.489,9.722-7,10.733l8.633,16.022h-8.167
			l-7.777-15.478h-8.4v15.478H2.496V5.049H20.385z M9.729,11.894v9.645h8.944c4.277,0,6.456-0.934,6.456-4.822
			c0-3.967-2.178-4.823-6.456-4.823H9.729z"/>
		<rect x="106.718" y="5.049" fill="#29559B" width="7.545" height="38.344"/>
		<path fill="#29559B" d="M217.784,25.272c0,8.556,2.256,11.511,8.322,11.511h14.468v6.61h-14.778
			c-4.122,0-7.311-0.311-10.656-3.345c-3.499-3.11-5.211-8.166-5.211-15.088c0-13.611,5.056-19.911,16.022-19.911h14.623v6.534
			h-14.468C220.04,11.583,217.784,15.705,217.784,25.272z"/>
		<path fill="#29559B" d="M143.196,8.316c-0.39-0.933-0.545-0.933-0.856-0.933c-0.311,0-0.467,0-0.933,0.933l-17.034,35.078h-7.856
			l18.278-37.488c2.022-4.045,4.278-5.756,7.544-5.756c3.267,0,5.522,1.711,7.467,5.756l18.355,37.488h-7.854L143.196,8.316z"/>
		<polygon fill="#D62729" points="142.34,19.205 130.751,43.394 137.207,43.394 147.396,43.394 153.929,43.394 		"/>
		<path fill="#29559B" d="M102.984,36.783H83.696h-2.177v-2.256V5.049h-7.312v32.044c0,3.5,2.956,6.379,6.377,6.379h18.589
			L102.984,36.783z"/>
		<path fill="#29559B" d="M52.585,4.505c-11.978,0.078-17.967,8.711-18.044,19.755c0.077,11.044,7.233,19.521,19.21,19.521
			c7.623,0,12.989-3.422,15.4-5.599l-3.5-5.678c-1.556,1.478-4.434,4.355-11.744,4.355c-5.367,0-11.356-3.889-11.356-8.555v-0.389
			h27.222C71.874,12.594,65.029,4.505,52.585,4.505z M42.551,21.539c0.934-6.222,4.278-10.033,10.345-10.033
			c7.544,0,9.645,5.988,9.722,10.033H42.551z"/>
		<path fill="#29559B" d="M259.94,4.505c-11.9,0.078-17.967,8.711-17.967,19.755s7.155,19.521,19.133,19.521
			c7.7,0,13.067-3.422,15.399-5.599l-3.421-5.678c-1.634,1.478-4.434,4.355-11.745,4.355c-5.366,0-11.355-3.889-11.355-8.555
			l-0.078-0.389h27.223C279.229,12.594,272.385,4.505,259.94,4.505z M249.906,21.539c1.012-6.222,4.278-10.033,10.422-10.033
			c7.468,0,9.568,5.988,9.646,10.033H249.906z"/>
	</g>
	<g>
		<path fill="#29559A" d="M35.227,56.189c-0.722-1.419-1.902-2.131-3.549-2.131c-1.416,0-2.458,0.588-3.18,1.741
			c-0.718,1.149-1.066,2.789-1.066,4.919c0,4.478,1.464,6.708,4.36,6.708c1.253,0,2.389-0.221,3.411-0.688l0.718,2.179
			c-1.392,0.611-2.782,0.933-4.174,0.933c-4.708,0-7.049-3.038-7.049-9.132c0-3.059,0.669-5.36,2.04-6.952
			c1.229-1.444,2.876-2.155,4.94-2.155c1.367,0,2.482,0.245,3.338,0.76c0.742,0.442,1.392,1.15,1.948,2.154L35.227,56.189z"/>
		<path fill="#29559A" d="M42.832,59.128c-1.926,0-2.876,1.395-2.876,4.208c0,2.817,0.95,4.235,2.876,4.235
			c1.923,0,2.875-1.418,2.875-4.235C45.708,60.522,44.755,59.128,42.832,59.128z M42.832,69.851c-3.594,0-5.403-2.182-5.403-6.515
			c0-4.332,1.809-6.483,5.403-6.483c3.618,0,5.427,2.151,5.427,6.483C48.259,67.669,46.45,69.851,42.832,69.851z"/>
		<path fill="#29559A" d="M66.094,69.481v-6.463c0-1.271-0.162-2.179-0.51-2.741c-0.394-0.659-1.067-0.978-2.041-0.978
			c-0.998,0-1.901,0.27-2.762,0.809c0.186,0.538,0.28,1.197,0.28,1.957v7.416h-2.503v-6.463c0-1.246-0.166-2.179-0.49-2.741
			C57.674,59.618,57,59.3,56.027,59.3c-0.394,0-0.811,0.025-1.229,0.049c-0.417,0.049-0.856,0.121-1.298,0.192v9.94h-2.482V57.56
			c1.764-0.465,3.525-0.707,5.29-0.707c1.391,0,2.458,0.366,3.225,1.073c1.321-0.707,2.734-1.073,4.287-1.073
			c3.18,0,4.778,1.736,4.778,5.213v7.416H66.094z"/>
		<path fill="#29559A" d="M86.918,69.481v-6.463c0-1.271-0.162-2.179-0.51-2.741c-0.395-0.659-1.067-0.978-2.041-0.978
			c-0.998,0-1.902,0.27-2.762,0.809c0.187,0.538,0.28,1.197,0.28,1.957v7.416h-2.503v-6.463c0-1.246-0.166-2.179-0.49-2.741
			c-0.394-0.659-1.067-0.978-2.041-0.978c-0.393,0-0.811,0.025-1.229,0.049c-0.418,0.049-0.856,0.121-1.298,0.192v9.94h-2.482V57.56
			c1.764-0.465,3.525-0.707,5.289-0.707c1.391,0,2.458,0.366,3.225,1.073c1.322-0.707,2.734-1.073,4.288-1.073
			c3.18,0,4.778,1.736,4.778,5.213v7.416H86.918z"/>
		<path fill="#29559A" d="M100.187,69.702c-0.88,0.098-1.785,0.148-2.738,0.148c-3.246,0-4.872-1.788-4.872-5.338v-7.246h2.506
			v6.415c0,1.271,0.163,2.179,0.511,2.74c0.393,0.66,1.087,0.977,2.085,0.977c0.905,0,1.764-0.071,2.576-0.217v-9.915h2.502v11.969
			C101.926,69.458,101.067,69.605,100.187,69.702z"/>
		<path fill="#29559A" d="M113.754,69.481v-6.463c0-1.271-0.162-2.179-0.511-2.741c-0.393-0.659-1.09-0.978-2.088-0.978
			c-0.439,0-0.88,0.025-1.298,0.073c-0.441,0.049-0.855,0.12-1.298,0.196v9.912h-2.482V57.56c1.785-0.465,3.574-0.707,5.358-0.707
			c3.201,0,4.799,1.736,4.799,5.213v7.416H113.754z"/>
		<path fill="#29559A" d="M119.481,69.481V57.267h2.482v12.215H119.481z M119.481,54.844v-3.132h2.482v3.132H119.481z"/>
		<path fill="#29559A" d="M132.862,60.84c-0.58-1.15-1.46-1.736-2.644-1.736c-1.971,0-2.944,1.419-2.944,4.232
			c0,1.226,0.209,2.206,0.649,2.914c0.535,0.907,1.367,1.37,2.505,1.37c0.926,0,1.831-0.222,2.714-0.635l0.6,1.885
			c-1.135,0.659-2.316,0.98-3.549,0.98c-1.691,0-3.013-0.515-3.941-1.543c-0.996-1.102-1.506-2.766-1.506-4.972
			c0-2.15,0.51-3.795,1.554-4.896c0.948-1.05,2.251-1.588,3.873-1.588c2.016,0,3.408,0.832,4.219,2.521L132.862,60.84z"/>
		<path fill="#29559A" d="M142.396,63.581c-2.902,0.076-4.361,0.832-4.361,2.254c0,1.396,0.718,2.079,2.157,2.079
			c0.906,0,1.624-0.294,2.204-0.905V63.581z M142.951,69.554c-0.021-0.072-0.045-0.192-0.068-0.318
			c-0.024-0.12-0.069-0.244-0.117-0.413c-0.95,0.684-2.087,1.028-3.364,1.028c-1.136,0-2.085-0.369-2.803-1.076
			c-0.721-0.736-1.09-1.692-1.09-2.891c0-2.572,2.295-3.942,6.888-4.087v-0.245c0-0.981-0.187-1.665-0.535-2.034
			c-0.301-0.317-0.812-0.486-1.53-0.486c-0.812,0-1.67,0.169-2.597,0.486l-0.58-1.885c1.298-0.511,2.527-0.78,3.687-0.78
			c2.667,0,4.013,1.443,4.013,4.305v5.899c0,0.318,0.023,0.664,0.048,1.054c0.021,0.418,0.069,0.856,0.139,1.348L142.951,69.554z"/>
		<path fill="#29559A" d="M153.181,69.851c-2.831,0-4.247-1.494-4.247-4.48v-6.194h-1.972v-1.443l1.972-0.27v-3.6l1.973-0.097
			l0.396,3.548l3.707-0.048V59.2l-3.569-0.024v5.877c0,1.735,0.694,2.592,2.064,2.592c0.532,0,1.111-0.073,1.717-0.246l0.417,2.034
			C154.803,69.702,153.992,69.851,153.181,69.851z"/>
		<path fill="#29559A" d="M157.517,69.481V57.267h2.482v12.215H157.517z M157.517,54.844v-3.132h2.482v3.132H157.517z"/>
		<path fill="#29559A" d="M168.185,59.128c-1.927,0-2.876,1.395-2.876,4.208c0,2.817,0.949,4.235,2.876,4.235
			c1.922,0,2.875-1.418,2.875-4.235C171.06,60.522,170.106,59.128,168.185,59.128z M168.185,69.851
			c-3.595,0-5.403-2.182-5.403-6.515c0-4.332,1.809-6.483,5.403-6.483c3.617,0,5.428,2.151,5.428,6.483
			C173.612,67.669,171.802,69.851,168.185,69.851z"/>
		<path fill="#29559A" d="M184.048,69.481v-6.463c0-1.271-0.162-2.179-0.511-2.741c-0.394-0.659-1.091-0.978-2.088-0.978
			c-0.439,0-0.882,0.025-1.299,0.073c-0.441,0.049-0.856,0.12-1.298,0.196v9.912h-2.482V57.56c1.785-0.465,3.573-0.707,5.357-0.707
			c3.2,0,4.8,1.736,4.8,5.213v7.416H184.048z"/>
		<path fill="#29559A" d="M195.575,69.016c-0.859,0.565-1.95,0.835-3.224,0.835c-1.205,0-2.345-0.222-3.412-0.687l0.256-2.059
			c0.93,0.466,1.927,0.711,3.019,0.711c1.646,0,2.457-0.586,2.457-1.76c0-0.419-0.255-0.808-0.767-1.153
			c-0.255-0.169-0.742-0.414-1.484-0.732c-0.742-0.346-1.273-0.639-1.598-0.883c-0.905-0.66-1.347-1.592-1.347-2.814
			c0-1.076,0.369-1.957,1.135-2.645c0.719-0.659,1.604-0.977,2.67-0.977c0.993,0,1.923,0.193,2.781,0.587l-0.23,1.86
			c-0.605-0.269-1.322-0.394-2.158-0.394c-1.185,0-1.764,0.491-1.764,1.443c0,0.591,0.486,1.105,1.484,1.567
			c0.486,0.222,0.953,0.441,1.415,0.663c0.463,0.217,0.859,0.462,1.204,0.708c0.837,0.614,1.255,1.471,1.255,2.547
			C197.268,67.255,196.712,68.308,195.575,69.016z"/>
	</g>
</g>
</svg>
